<svg width="30" height="30" viewBox="0 0 30 30" fill="none" xmlns="http://www.w3.org/2000/svg">
<circle cx="15" cy="15" r="15" fill="black" fill-opacity="0.36"/>
<path d="M12.0974 18.7626H5.80912C5.36059 18.7626 5 18.4192 5 17.992V12.0032C5 11.5761 5.36059 11.2326 5.80912 11.2326H12.0974C12.5459 11.2326 12.9065 11.5761 12.9065 12.0032V17.992C12.9065 18.4192 12.5459 18.7626 12.0974 18.7626Z" fill="white"/>
<path d="M8.17493 17.8161C6.1873 16.409 6.1873 13.5779 8.17493 12.1707L10.3648 10.6212L15.2723 7.15355C15.8 6.77663 16.5476 7.13679 16.5476 7.76499V15.0018V22.2387C16.5476 22.8669 15.8 23.2186 15.2723 22.8501L10.3648 19.3825L8.17493 17.8161Z" fill="white"/>
<path d="M20.1535 10.328C22.1587 11.174 23.39 12.8911 23.4163 15.0018C23.4427 17.1963 22.2554 19.0055 20.1535 19.885C19.2212 20.2787 20.0303 21.577 20.9538 21.1833C23.5395 20.0944 25.0346 17.6654 24.9994 14.9935C24.9642 12.4053 23.4515 10.0768 20.9538 9.01301C20.0303 8.63609 19.23 9.93437 20.1535 10.328Z" fill="white"/>
<path d="M18.412 13.0167C18.5175 13.067 18.6231 13.1256 18.7198 13.1926C18.5967 13.1089 18.7726 13.2429 18.7814 13.2512C18.8254 13.2931 18.8693 13.335 18.9133 13.3769C18.9573 13.4188 19.0013 13.469 19.0364 13.5109C18.9661 13.4271 19.0452 13.5277 19.0716 13.5612C19.1508 13.67 19.2211 13.7873 19.2915 13.9129C19.3179 13.9548 19.3355 14.0051 19.3618 14.047C19.4674 14.248 19.3267 13.9297 19.4058 14.1391C19.4498 14.2564 19.4938 14.3653 19.5201 14.4825C19.5553 14.5914 19.5729 14.7087 19.5993 14.8259C19.5641 14.6584 19.5993 14.8678 19.6081 14.8929C19.6081 14.9432 19.6169 15.0018 19.6169 15.0521C19.6169 15.161 19.6081 15.2782 19.5993 15.3871C19.5905 15.4458 19.5729 15.5379 19.5905 15.429C19.5817 15.4876 19.5729 15.5463 19.5553 15.6049C19.5289 15.7305 19.485 15.8645 19.441 15.9902C19.4322 16.0069 19.3706 16.1828 19.397 16.1075C19.4234 16.0404 19.3442 16.2247 19.3442 16.2163C19.2915 16.3252 19.2211 16.4341 19.1508 16.5346C19.1508 16.5346 19.0364 16.6938 19.0804 16.6351C19.1332 16.5765 19.01 16.7189 18.9925 16.7273C18.9397 16.7775 18.8869 16.8362 18.8254 16.8864C18.8166 16.8948 18.667 17.0121 18.7286 16.9702C18.7902 16.9283 18.6143 17.0372 18.6143 17.0372C18.5439 17.0791 18.4736 17.1126 18.4032 17.1461C18.0162 17.3303 17.9107 17.8413 18.1218 18.1763C18.3504 18.5449 18.8166 18.6286 19.2035 18.4443C20.4964 17.8329 21.2 16.3839 21.1824 15.0521C21.1648 13.7873 20.4348 12.2964 19.1947 11.7184C18.8078 11.5426 18.3416 11.6179 18.113 11.9865C17.9283 12.3131 18.025 12.8324 18.412 13.0167Z" fill="white"/>
</svg>
