<svg width="30" height="30" viewBox="0 0 30 30" fill="none" xmlns="http://www.w3.org/2000/svg">
<circle cx="15" cy="15" r="15" fill="black" fill-opacity="0.36"/>
<path d="M12.0974 18.7626H5.80912C5.36059 18.7626 5 18.4192 5 17.992V12.0032C5 11.5761 5.36059 11.2326 5.80912 11.2326H12.0974C12.5459 11.2326 12.9065 11.5761 12.9065 12.0032V17.992C12.9065 18.4192 12.5459 18.7626 12.0974 18.7626Z" fill="white"/>
<path d="M8.17492 17.8161C6.1873 16.409 6.1873 13.5779 8.17492 12.1707L10.3648 10.6212L15.2723 7.15355C15.8 6.77663 16.5476 7.13679 16.5476 7.76499V15.0018V22.2387C16.5476 22.8669 15.8 23.2186 15.2723 22.8501L10.3648 19.3825L8.17492 17.8161Z" fill="white"/>
<path d="M23.8745 17.2676C22.3774 15.7652 20.8802 14.2675 19.3783 12.7651C19.1658 12.5511 18.9533 12.3372 18.7408 12.128C18.3496 11.7333 17.7314 12.3419 18.1274 12.7318C19.6246 14.2342 21.1217 15.7319 22.6237 17.2344C22.8362 17.4483 23.0487 17.6623 23.2612 17.8715C23.6524 18.2661 24.2657 17.6623 23.8745 17.2676Z" fill="white" stroke="white"/>
<path d="M18.7324 17.8287C20.2348 16.3548 21.7325 14.8808 23.2349 13.4022C23.4489 13.193 23.6628 12.9838 23.872 12.7746C24.2667 12.3894 23.6581 11.7809 23.2682 12.1707C21.7658 13.6447 20.2681 15.1186 18.7656 16.5972C18.5517 16.8064 18.3377 17.0156 18.1285 17.2248C17.7339 17.61 18.3377 18.2138 18.7324 17.8287Z" fill="white" stroke="white"/>
</svg>
