<?xml version="1.0" encoding="utf-8"?>
<!-- Generator: Adobe Illustrator 27.2.0, SVG Export Plug-In . SVG Version: 6.00 Build 0)  -->
<svg version="1.1" id="圖層_1" xmlns="http://www.w3.org/2000/svg" xmlns:xlink="http://www.w3.org/1999/xlink" x="0px" y="0px"
	 viewBox="0 0 32 32" style="enable-background:new 0 0 32 32;" xml:space="preserve">
<style type="text/css">
	.st0{fill:#FF9000;}
	.st1{fill:#1789FA;}
</style>
<g>
	<polygon class="st0" points="12,11.3 21.3,16 12,20.7 	"/>
	<path class="st1" d="M30.5,8c-1.1-2-2.9-3-5.2-3.6c-2.5-0.6-6.4-0.9-9.3-0.9S9.2,3.8,6.7,4.4C4.4,5,2.6,6,1.5,8c-1.1,2-1.5,4-1.5,8
		c0,4.1,0.5,6.1,1.5,8c1.1,2,2.9,3,5.2,3.6c2.5,0.7,6.4,0.9,9.3,0.9s6.8-0.2,9.3-0.9c2.3-0.6,4.1-1.6,5.2-3.6c1.1-2,1.5-4,1.5-8
		C32,11.9,31.5,9.9,30.5,8z M26.5,16v7.3c0,0-5.6,0.7-10.5,0.7c-4.9,0-10.5-0.7-10.5-0.7V16V8.7C5.5,8.7,11.1,8,16,8
		c4.9,0,10.5,0.7,10.5,0.7V16z"/>
</g>
</svg>
